<?xml version="1.0" encoding="utf-8"?>
<!-- Generator: Adobe Illustrator 19.2.1, SVG Export Plug-In . SVG Version: 6.00 Build 0)  -->
<svg version="1.1" id="layer" xmlns="http://www.w3.org/2000/svg" xmlns:xlink="http://www.w3.org/1999/xlink" x="0px" y="0px"
	 viewBox="0 0 652 652" style="enable-background:new 0 0 652 652;" xml:space="preserve">
<style type="text/css">
	.st0{fill:#2EB5CB;}
</style>
<g>
	<path class="st0" d="M155,304.8h-20.7l-7.1-18.3H155v-3c0-29.9,7.7-49.5,41.2-49.5c5.8,0,10.6,1.9,15.2,2.6l-1,17.1
		c-2.7-1-7-1.4-10.9-1.4c-19.5,0-22,12.5-22,29.2v5h30.2l-9.5,18.3h-20.7v103.5H155V304.8z"/>
	<path class="st0" d="M453.3,263l22.7-8.3v32.5h32.6l-5.9,18.3H476v55.9c0,16.6,2.4,29.2,21.9,29.2c3.9,0,8.2-0.5,10.9-1.4l1,18.3
		c-4.6,0.7-9.4,1.4-15.2,1.4c-33.5,0-41.3-19.5-41.3-49.5v-54h-29l4.7-18.3h24.2V263z"/>
	<path class="st0" d="M303.1,400.3c-8.7,3.1-18.6,8-38.8,8c-43.7,0-63.7-26.5-63.7-66.6c0-36.4,22.9-62.2,57.7-62.2
		c41,0,54.3,29.9,54.3,69.5h-87.8c0,24.4,19.1,41,40.5,41c15,0,32.3-7.7,37.9-12.3V400.3z M288.4,332.1c0-18.8-11.1-34.3-30.6-34.3
		c-22.2,0-31.4,18.3-33.1,34.3H288.4z"/>
	<path class="st0" d="M122.6,400.3c-8.7,3.1-18.6,8-38.8,8c-43.7,0-63.7-26.5-63.7-66.6c0-36.4,22.9-62.2,57.7-62.2
		c41,0,54.3,29.9,54.3,69.5H44.2c0,24.4,19.1,41,40.5,41c15,0,32.3-7.7,37.9-12.3V400.3z M107.9,332.1c0-18.8-11.1-34.3-30.6-34.3
		c-22.2,0-31.4,18.3-33.1,34.3H107.9z"/>
	<path class="st0" d="M413,303.1c-8.7-3.6-19.3-5.3-26.5-5.3c-25.3,0-39.6,22.7-39.6,46.1c0,22,11.8,46.1,41,46.1
		c7.7,0,19.1-2.4,26-7v20.3c-9.4,4.4-20.3,5.1-28.5,5.1c-37.2,0-62.7-29.2-62.7-64.4c0-37.4,25.1-64.4,62.7-64.4
		c9.2,0,26.9,3.4,33.4,6L413,303.1z"/>
	<path class="st0" d="M610.6,400.3c-8.7,3.1-18.6,8-38.8,8c-43.7,0-63.7-26.5-63.7-66.6c0-36.4,22.9-62.2,57.7-62.2
		c41,0,54.3,29.9,54.3,69.5h-87.8c0,24.4,19.1,41,40.5,41c15,0,32.3-7.7,37.9-12.3V400.3z M595.9,332.1c0-18.8-11.1-34.3-30.6-34.3
		c-22.2,0-31.4,18.3-33.1,34.3H595.9z"/>
</g>
</svg>
